<svg xmlns="http://www.w3.org/2000/svg" width="248" height="207">
  <path fill="#000" d="M5.16 122L7.26 122L7.26 93.21C7.26 83.84 11.99 77.10 19.64 77.10C21.91 77.10 23.59 77.66 24.62 78.17L24.62 75.98C23.72 75.59 21.91 75.08 19.98 75.08C13.62 75.08 9.24 78.64 7.22 85.35L7.13 85.35L7.13 75.77L5.16 75.77ZM48.81 77.05C59.30 77.05 66.34 85.18 66.34 97.04L30.89 97.04C31.41 85.05 38.50 77.05 48.81 77.05ZM65.70 109.15C64.32 115.68 58.44 120.71 49.20 120.71C38.16 120.71 30.85 112.80 30.85 99.05L30.85 98.97L68.49 98.97L68.49 97.34C68.49 84.06 60.59 75.08 48.81 75.08C36.70 75.08 28.70 84.53 28.70 98.88C28.70 113.92 36.74 122.69 49.16 122.69C59.51 122.69 66.34 116.93 67.89 109.15ZM76.87"/>
  <path fill="#dfb317" d="M76.87 122L78.98 122L78.98 94.29C78.98 84.14 85.72 77.05 95.22 77.05C104.24 77.05 110.43 82.81 110.43 92.22L110.43 122L112.54 122L112.54 92.14C112.54 81.78 105.62 75.08 95.48 75.08C87.44 75.08 81.04 79.85 79.06 86.68L78.98 86.68L78.98 57.29L76.87 57.29ZM124.74 137.55C130.80 137.55 133.07 134.98 137.29 123.89L155.50 75.77L153.18 75.77L136.51 119.98L136.43 119.98L119.80 75.77L117.48 75.77L135.31 122.82L133.80 126.73C131.18 133.30 129.08 135.58 124.95 135.58C124.14 135.58 123.15 135.36 122.72 135.19L122.72 137.17C123.02 137.30 123.92 137.55 124.74 137.55ZM180.77 75.08C171.62 75.08 164.66 81.48 162.77 89.56L162.68 89.56L162.68 75.77L160.70 75.77L160.70 137.08L162.81 137.08L162.81 108.46L162.89 108.46C164.70 116.33 171.62 122.69 180.77 122.69C192.33 122.69 200.28 113.02 200.28 98.88C200.28 84.79 192.29 75.08 180.77 75.08ZM180.64 120.67C170.16 120.67 162.81 111.73 162.81 98.88C162.81 86.04 170.16 77.05 180.64 77.05C191.04 77.05 198.17 85.99 198.17 98.93C198.17 111.82 191.04 120.67 180.64 120.67ZM225.97 77.05C236.46 77.05 243.50 85.18 243.50 97.04L208.05 97.04C208.57 85.05 215.66 77.05 225.97 77.05ZM242.86 109.15C241.48 115.68 235.60 120.71 226.36 120.71C215.32 120.71 208.01 112.80 208.01 99.05L208.01 98.97L245.65 98.97L245.65 97.34C245.65 84.06 237.75 75.08 225.97 75.08C213.86 75.08 205.86 84.53 205.86 98.88C205.86 113.92 213.90 122.69 226.32 122.69C236.67 122.69 243.50 116.93 245.05 109.15Z"/>
</svg>
