<svg xmlns="http://www.w3.org/2000/svg" width="1012" height="300" viewBox="0 0 1012 300">
  <style>
    .b {fill: #0d1117}
    .l {fill: #fff}
    @media (prefers-color-scheme: light) {
      .b {fill: #fff}
      .l {fill: #0d1117}
    }
  </style>
  <rect class="b" x="0" y="0" width="1012" height="300" />
  <path fill="#d8a303" d="M411.46 166.48L411.46 152.30Q411.46 145.83 414.48 141.99Q417.49 138.15 422.59 138.15L422.59 138.15Q423.88 138.15 425.29 138.38Q426.69 138.62 427.78 139.03L427.78 139.03L427.78 134.84Q427.04 134.52 425.80 134.33Q424.55 134.14 423.18 134.14L423.18 134.14Q418.58 134.14 415.59 136.44Q412.60 138.74 411.78 142.95L411.78 142.95L411.37 142.95L411.37 134.93L400.47 134.93L400.47 138.03L407.62 138.03L407.62 166.48L411.46 166.48ZM401.12 166.48L421.48 166.48L421.48 163.37L401.12 163.37L401.12 166.48ZM450.37 137.80L450.37 137.80Q454.55 137.80 456.91 140.65Q459.27 143.51 459.27 148.55L459.27 148.55L441.22 148.55Q441.22 143.48 443.66 140.64Q446.09 137.80 450.37 137.80ZM463.02 158.69L459.21 158.69Q458.48 161.00 456.25 162.29Q454.03 163.58 450.80 163.58L450.80 163.58Q446.41 163.58 443.82 160.66Q441.22 157.75 441.22 152.80L441.22 152.80L441.22 151.71L463.17 151.71L463.17 149.22Q463.17 144.51 461.66 141.20Q460.15 137.89 457.29 136.14Q454.44 134.40 450.37 134.40L450.37 134.40Q446.47 134.40 443.54 136.11Q440.61 137.83 439.00 140.92Q437.39 144.01 437.39 148.17L437.39 148.17L437.39 152.77Q437.39 159.51 440.92 163.26Q444.45 167.01 450.80 167.01L450.80 167.01Q454.00 167.01 456.56 165.98Q459.13 164.96 460.81 163.08Q462.49 161.21 463.02 158.69L463.02 158.69Z"/>
  <path class="l" d="M474.65 122.36L474.65 166.48L478.49 166.48L478.49 147.73Q478.49 143.33 481.11 140.60Q483.73 137.86 487.98 137.86L487.98 137.86Q491.97 137.86 493.87 140.08Q495.78 142.31 495.78 146.94L495.78 146.94L495.78 166.48L499.61 166.48L499.61 145.97Q499.61 140.35 496.89 137.37Q494.16 134.40 489.01 134.40L489.01 134.40Q485.35 134.40 482.67 136.01Q479.98 137.62 478.70 140.61L478.70 140.61L478.31 140.61L478.31 122.36L474.65 122.36ZM515.55 177.64L515.55 177.64Q518.13 177.64 519.87 176.81Q521.62 175.97 522.98 173.88Q524.34 171.78 525.75 168.00L525.75 168.00L538.02 134.93L533.92 134.93L524.40 162.29L524.05 162.29L514.50 134.93L510.34 134.93L522.17 166.68L521.53 168.65Q520.36 171.78 519.01 173.04Q517.66 174.30 515.49 174.30L515.49 174.30Q515.14 174.30 514.61 174.27Q514.09 174.24 513.76 174.18L513.76 174.18L513.76 177.52Q514.14 177.55 514.67 177.60Q515.20 177.64 515.55 177.64ZM562.72 134.40L562.72 134.40Q559.35 134.40 556.87 135.69Q554.40 136.98 553.02 139.47L553.02 139.47L552.49 139.47L552.49 134.93L548.83 134.93L548.83 177.17L552.67 177.17L552.67 161.82L553.20 161.82Q554.31 164.31 556.80 165.66Q559.29 167.01 562.72 167.01L562.72 167.01Q566.38 167.01 569.15 165.34Q571.92 163.67 573.47 160.66Q575.02 157.66 575.02 153.74L575.02 153.74L575.02 147.67Q575.02 143.72 573.47 140.73Q571.92 137.74 569.15 136.07Q566.38 134.40 562.72 134.40ZM561.87 137.86L561.87 137.86Q566.12 137.86 568.65 140.79Q571.19 143.72 571.19 148.61L571.19 148.61L571.19 152.83Q571.19 157.69 568.65 160.63Q566.12 163.58 561.87 163.58L561.87 163.58Q557.65 163.58 555.12 160.65Q552.58 157.72 552.58 152.83L552.58 152.83L552.58 148.61Q552.58 143.72 555.12 140.79Q557.65 137.86 561.87 137.86ZM598.72 137.80L598.72 137.80Q602.91 137.80 605.27 140.65Q607.63 143.51 607.63 148.55L607.63 148.55L589.58 148.55Q589.58 143.48 592.02 140.64Q594.45 137.80 598.72 137.80ZM611.38 158.69L607.57 158.69Q606.84 161.00 604.61 162.29Q602.39 163.58 599.16 163.58L599.16 163.58Q594.77 163.58 592.18 160.66Q589.58 157.75 589.58 152.80L589.58 152.80L589.58 151.71L611.53 151.71L611.53 149.22Q611.53 144.51 610.02 141.20Q608.51 137.89 605.65 136.14Q602.80 134.40 598.72 134.40L598.72 134.40Q594.83 134.40 591.90 136.11Q588.97 137.83 587.36 140.92Q585.75 144.01 585.75 148.17L585.75 148.17L585.75 152.77Q585.75 159.51 589.28 163.26Q592.81 167.01 599.16 167.01L599.16 167.01Q602.36 167.01 604.92 165.98Q607.48 164.96 609.17 163.08Q610.85 161.21 611.38 158.69L611.38 158.69Z"/>
</svg>
