<svg xmlns="http://www.w3.org/2000/svg" width="400" height="400" viewBox="0 0 410 210">
  <path fill="#d8a303" d="M6.57 126L14.01 126L14.01 98.03C14.01 91.93 16.50 86.94 24.49 86.94C25.87 86.94 27.33 86.98 28.10 87.11L28.10 80.37C27.20 80.24 26.25 80.15 25.31 80.15C18.91 80.15 15.51 83.68 14.18 86.38L13.96 86.38L13.96 80.84L6.57 80.84ZM53.50 126.73C63.46 126.73 69.44 121.19 71.16 113.71L63.81 113.71C62.35 117.92 58.91 120.54 53.67 120.54C46.32 120.54 41.94 114.66 41.94 106.06L41.94 105.25L71.76 105.25L71.76 101.04C71.76 88.62 64.97 80.11 53.15 80.11C41.29 80.11 34.55 88.62 34.55 100.52L34.55 105.59C34.55 118.44 41.72 126.73 53.50 126.73ZM41.94 99.27L41.94 99.14C41.94 92.01 46.32 86.30 53.20 86.30C59.94 86.30 64.37 91.97 64.37 99.14L64.37 99.27Z"/>
  <path d="M83.06 126L90.45 126L90.45 98.50C90.45 92.31 93.80 86.81 101.58 86.81C108.20 86.81 112.62 90.68 112.62 98.29L112.62 126L120.01 126L120.01 97.04C120.01 86.04 113.14 80.11 103.81 80.11C96.51 80.11 92.34 83.93 90.66 86.81L90.45 86.81L90.45 64.25L83.06 64.25ZM166.89 80.84L159.03 80.84L146.78 117.79L146.52 117.79L134.32 80.84L126.11 80.84L142.74 126.64L142.05 129.09C140.77 133.86 138.32 135.63 133.16 135.63C132.04 135.63 130.63 135.54 129.89 135.45L129.89 141.47C131.14 141.73 132.69 141.86 134.06 141.86C141.67 141.86 146.09 138.93 149.62 129.35L150.78 126.21C150.82 126.17 166.46 82.30 166.89 80.84ZM194.13 126.73C204.75 126.73 212.14 118.70 212.14 105.50L212.14 101.34C212.14 87.97 204.62 80.15 194.43 80.15C188.38 80.15 183.73 83.07 181.11 87.33L180.90 87.33L180.90 80.84L173.81 80.84L173.81 141.00L181.20 141.00L181.20 119.98L181.41 119.98C183.95 123.98 188.38 126.73 194.13 126.73ZM193.40 120.29C185.71 120.29 181.07 114.18 181.07 104.95L181.07 101.55C181.07 92.57 185.67 86.51 193.19 86.51C200.49 86.51 204.70 92.10 204.70 101.59L204.70 104.95C204.70 114.87 200.15 120.29 193.40 120.29ZM240.63 126.73C250.59 126.73 256.57 121.19 258.29 113.71L250.94 113.71C249.48 117.92 246.04 120.54 240.80 120.54C233.45 120.54 229.07 114.66 229.07 106.06L229.07 105.25L258.89 105.25L258.89 101.04C258.89 88.62 252.10 80.11 240.28 80.11C228.42 80.11 221.68 88.62 221.68 100.52L221.68 105.59C221.68 118.44 228.85 126.73 240.63 126.73ZM229.07 99.27L229.07 99.14C229.07 92.01 233.45 86.30 240.32 86.30C247.07 86.30 251.50 91.97 251.50 99.14L251.50 99.27Z"/>
</svg>
